<svg xmlns="http://www.w3.org/2000/svg" viewBox="0 0 32 32" width="32" height="32">
  <defs>
    <linearGradient id="g1" x1="0%" y1="0%" x2="100%" y2="0%">
      <stop offset="0%" stop-color="#4a9eff"/>
      <stop offset="50%" stop-color="#a855f7"/>
      <stop offset="100%" stop-color="#f43f5e"/>
    </linearGradient>
    <linearGradient id="g2" x1="0%" y1="0%" x2="100%" y2="0%">
      <stop offset="0%" stop-color="#3b82f6"/>
      <stop offset="50%" stop-color="#8b5cf6"/>
      <stop offset="100%" stop-color="#ec4899"/>
    </linearGradient>
    <linearGradient id="g3" x1="0%" y1="0%" x2="100%" y2="0%">
      <stop offset="0%" stop-color="#06b6d4"/>
      <stop offset="50%" stop-color="#6366f1"/>
      <stop offset="100%" stop-color="#f97316"/>
    </linearGradient>
    <linearGradient id="g4" x1="0%" y1="0%" x2="100%" y2="0%">
      <stop offset="0%" stop-color="#14b8a6"/>
      <stop offset="50%" stop-color="#a78bfa"/>
      <stop offset="100%" stop-color="#fb923c"/>
    </linearGradient>
    <linearGradient id="g5" x1="0%" y1="0%" x2="100%" y2="0%">
      <stop offset="0%" stop-color="#22d3ee"/>
      <stop offset="50%" stop-color="#c084fc"/>
      <stop offset="100%" stop-color="#fbbf24"/>
    </linearGradient>
  </defs>
  <path d="M 5,27 Q 5,21 8,17 Q 11,12 15,9 Q 19,6 23,5 Q 25,4 27,4"
        fill="none" stroke="url(#g1)" stroke-width="1.8" stroke-linecap="round"/>
  <path d="M 5,27 Q 6,22 9,18 Q 13,14 17,11 Q 21,8 24,7 Q 26,6 28,6"
        fill="none" stroke="url(#g2)" stroke-width="1.8" stroke-linecap="round"/>
  <path d="M 5,27 Q 7,23 11,19 Q 14,16 18,13 Q 22,11 25,10 Q 27,9 28,9"
        fill="none" stroke="url(#g3)" stroke-width="1.8" stroke-linecap="round"/>
  <path d="M 5,27 Q 8,24 12,21 Q 16,17 20,15 Q 23,13 26,12 Q 27,11 29,11"
        fill="none" stroke="url(#g4)" stroke-width="1.8" stroke-linecap="round"/>
  <path d="M 5,27 Q 9,25 13,22 Q 17,19 21,17 Q 24,15 27,14 Q 28,14 29,13"
        fill="none" stroke="url(#g5)" stroke-width="1.8" stroke-linecap="round"/>
</svg>
